# xmcd CD database file
#
# Track frame offsets:
#	182
#	16065
#	35115
#	50092
#	64250
#	81517
#	96262
#	116817
#	134685
#	149995
#	163895
#
# Disc length: 2388 seconds
#
# Revision: 3
# Processed by: cddbd v1.5.2PL0 Copyright (c) Steve Scherf et al.
# Submitted via: CDex 1.51
#
DISCID=b209520b
DTITLE=Gildor Roy - Une autre chambre d'hôtel
DYEAR=1994
DGENRE=Slow Rock
TTITLE0=Le soleil se lève aussi
TTITLE1=On The Road
TTITLE2=Une autre chambre d'hôtel
TTITLE3=Dangereuse
TTITLE4=Regarde-nous
TTITLE5=Prendre le temps de dire
TTITLE6=Ma blonde
TTITLE7=Qu'est-ce qu'un gars ferait pas
TTITLE8=Trop jeune
TTITLE9=Tu m'montes s'a tête
TTITLE10=Requiem
EXTD=YEAR: 1994
EXTT0=
EXTT1=
EXTT2=
EXTT3=
EXTT4=
EXTT5=
EXTT6=
EXTT7=
EXTT8=
EXTT9=
EXTT10=
PLAYORDER=
